<?xml version="1.0" encoding="utf-8"?>
<!-- Generator: Adobe Illustrator 22.0.1, SVG Export Plug-In . SVG Version: 6.00 Build 0)  -->
<svg version="1.1" id="Слой_1" xmlns="http://www.w3.org/2000/svg" xmlns:xlink="http://www.w3.org/1999/xlink" x="0px" y="0px"
	 viewBox="0 0 203.7 173.9" style="enable-background:new 0 0 203.7 173.9;" xml:space="preserve">
<style type="text/css">
	.st0{fill:#ba0c2f;}
</style>
<g id="XMLID_3_">
	<g>
		<path class="st0" d="M188.8,14.9c9.2,9.2,14.9,22,14.9,36c0,14.1-5.7,26.8-14.9,36l-86.9,86.9L14.9,86.9C5.7,77.7,0,65,0,50.9
			c0-14.1,5.7-26.8,14.9-36C24.1,5.7,36.9,0,50.9,0c14.1,0,26.8,5.7,36,14.9l14.9,14.9l14.9-14.9C126,5.7,138.7,0,152.8,0
			C166.9,0,179.6,5.7,188.8,14.9z"/>
	</g>
</g>
</svg>
