<?xml version="1.0" encoding="utf-8"?>
<!-- Generator: Adobe Illustrator 22.0.1, SVG Export Plug-In . SVG Version: 6.00 Build 0)  -->
<svg version="1.1" id="Слой_1" xmlns="http://www.w3.org/2000/svg" xmlns:xlink="http://www.w3.org/1999/xlink" x="0px" y="0px"
	 viewBox="0 0 203.7 190.1" style="enable-background:new 0 0 203.7 190.1;" xml:space="preserve">
<path d="M188.8,103.1c-9.2-9.2-22-14.9-36-14.9c-9.1,0-17.7,2.4-25.1,6.6c6.5-3.9,12.1-9.1,16.4-15.4c3-4.4,5.2-9.2,6.7-14.4
	c1.3-4.5,2-9.3,2-14.2c0-23.2-15.5-42.8-36.8-48.9c-4.5-1.3-9.3-2-14.2-2s-9.7,0.7-14.2,2C66.5,8.2,50.9,27.7,50.9,50.9
	c0,4.9,0.7,9.7,2,14.2c1.5,5.2,3.8,10,6.7,14.4C63.9,85.7,69.5,91,76,94.8c-7.4-4.2-16-6.6-25.1-6.6c-14.1,0-26.8,5.7-36,14.9
	c-9.2,9.2-14.9,22-14.9,36c0,14.1,5.7,26.8,14.9,36c9.2,9.2,21.9,14.9,36,14.9c28.1,0,50.9-22.8,50.9-50.9
	c0,28.1,22.8,50.9,50.9,50.9c14.1,0,26.8-5.7,36-14.9c9.2-9.2,14.9-21.9,14.9-36C203.7,125.1,198,112.3,188.8,103.1z"/>
</svg>
