<?xml version="1.0" encoding="utf-8"?>
<!-- Generator: Adobe Illustrator 22.0.1, SVG Export Plug-In . SVG Version: 6.00 Build 0)  -->
<svg version="1.1" id="Слой_1" xmlns="http://www.w3.org/2000/svg" xmlns:xlink="http://www.w3.org/1999/xlink" x="0px" y="0px"
	 viewBox="0 0 636.2 635.1" style="enable-background:new 0 0 636.2 635.1;" xml:space="preserve">
<style type="text/css">
	.st0{fill:#535353;}
</style>
<g>
	<g>
		<path class="st0" d="M0.2,226.4c-0.2-13.8-0.2-13.8,15.4-11.2c20.7,3.4,41.5,6.4,62.2,10.1c18.4,3.3,36.8,6.3,55.3,9
			c18.4,2.7,36.7,5.6,54.9,9c18.6,3.4,37.2,6.1,55.8,9.2c18.1,3,36.3,5.8,54.4,8.9c13.5,2.3,27.2,3.7,40.3,8.2
			c13.7,4.7,20,15.2,22.6,29c4.1,21.8,7.7,43.7,11.2,65.6c2.9,17.6,6,35.2,8.9,52.9c3,17.9,6.1,35.9,9.1,53.8
			c2.9,17.6,6.1,35.2,8.9,52.8c3.4,21.6,7.8,43,11.5,64.5c2.4,14.1,4.2,28.2,6.5,42.3c0.6,3.5-0.6,4.4-3.7,4.6
			c-18.2,1-35.4-2.8-52.6-8.4c-12.1-4-24.6-6.9-36.9-10.3c-25.2-7.1-50.3-14.2-75.4-21.4c-24.3-6.9-48.8-13.5-72.9-21.1
			c-17.6-5.5-36-8.7-52.6-17c-17.4-8.7-31.2-21.3-41.1-38.2c-9.9-16.8-14-35.4-18.9-53.9c-5.4-20.3-11.5-40.3-17.1-60.5
			c-5.4-19.6-10.4-39.3-15.8-58.8c-6.6-23.6-13.7-47-20-70.6C5.7,258.7-1.1,243.1,0.2,226.4z M289.8,380.1
			c16.7,0,26.1-12.9,22.2-25.9c-6.4-21.3-19-37.1-40.1-45.1c-7.8-3-16.2-4-23.3,2c-6.2,5.3-6.9,12.2-5.9,20
			c1.4,10.6,6.3,19.5,12.8,27.4C265,370.1,276.8,378.8,289.8,380.1z M354.1,544.3c0-0.3,0.2-2.4-0.3-4.2
			c-6.2-20.2-17.7-35.7-37.7-44.4c-9-3.9-20.3-3.8-26.7,1.7c-4.7,4.1-7.2,17.6-4.1,25.2c8.2,20,20.8,35.4,42.6,42.1
			C342,569,354.1,560.9,354.1,544.3z M65.9,290.8c0.2,2.8-0.1,5.7,0.8,8.3c6,18.5,17.5,32.3,35,41.2c9.7,4.9,21.8,4.9,27.8-0.8
			c8.6-8.1,6.8-22.2,1.4-33.1c-7.3-15-18-26.2-33.7-32.8C84.3,268.1,64.3,270.1,65.9,290.8z M156.2,518.1c16.9,0.2,22.5-4.4,24-15.3
			c1.9-13.7-4-25-12.2-35c-10.6-12.9-23-22.8-41.4-22.1c-7.4,0.3-15,9.2-15.5,15.7c-0.9,13.1,4.3,24.2,12.1,34
			C133,507.7,144.8,517.4,156.2,518.1z M196.1,380c-16.8,0-22.9,6-23.2,18.2c-0.2,6.7,1,13,4,18.9c9.7,18.8,23.4,32.4,45.2,35.7
			c9.3,1.4,17-4.4,19-13.5c2.9-13.3-2.4-24.4-9.8-34.5C221.6,391.3,209.1,381.2,196.1,380z"/>
		<path class="st0" d="M635.9,364.7c1.8,34.9-12.7,62-33.7,86.8c-23,27-45.3,54.6-67.9,81.9c-20.1,24.3-40.1,48.6-60.3,72.8
			c-6.9,8.3-16,13.8-25.4,18.8c-3.2,1.7-4,1-4.6-2.9c-2-13.9-4.9-27.7-7.3-41.6c-1.6-9.6-2.9-19.2-4.5-28.8
			c-2.4-14.1-4.9-28.1-7.4-42.2c-1.5-8.9-3.1-17.8-4.5-26.7c-1.8-10.8-3.5-21.6-5.1-32.5c-2.2-14.6-5.2-29-7.1-43.6
			c-2-15.3-5.4-30.3-8-45.5c-2.4-14.2-4.2-28.6-7-42.8c-2.1-10.7-4.3-21.3-4.8-32.2c-1-19,8.5-33.4,21.1-46
			c10.2-10.1,21.4-19.4,32-29.2c19.9-18.4,39.8-36.9,59.6-55.4c30.5-28.4,60.9-56.8,91.3-85.2c2.3-2.2,2.9-3.4,5.2,0.8
			c7.6,13.5,10,28.1,11.7,43c1.8,16.1,3.6,32.1,5.5,48.2c1.2,10.5,2.4,21,3.5,31.5c1.8,15.9,3.6,31.8,5.4,47.7c1.2,10,2.5,20,3.6,30
			c1.8,16.1,3.6,32.2,5.2,48.3C633.6,335.3,637.2,350.4,635.9,364.7z M502.6,344.2c0.5,5.4,0.8,10.9,1.4,16.3
			c1.2,9.7,7.9,17.1,15.2,16.5c6.1-0.5,9.9-5.1,12.4-9.5c11.6-20.3,15.5-42,9.4-65c-1.7-6.3-4.5-12-11.3-13.3
			c-6.9-1.3-10.9,4.1-14.2,8.9C506,311.9,502.8,327.6,502.6,344.2z"/>
		<path class="st0" d="M345.8,241c-14.5-2.4-31.5-3.9-48.3-7.6c-9.8-2.2-19.9-2.8-29.8-4.4c-14.7-2.4-29.3-5.3-44-7.8
			c-10-1.7-20.2-2.6-30.3-4.3c-14.4-2.4-28.8-5.2-43.2-7.6c-10-1.7-20.2-2.7-30.2-4.4c-14.5-2.4-28.9-5.3-43.4-7.7
			c-10.1-1.7-20.2-2.7-30.3-4.3c-12.3-1.9-24.6-4-37-6c-2.3-0.4-2.3-1.5-1.4-3.6c7.7-16.9,21.1-28.6,35.7-39.3
			c18.8-13.7,37.3-27.9,56-41.9c18-13.4,36.2-26.7,54.3-40.1c15.3-11.3,30.6-22.6,45.7-34.2c14.3-11,29.8-19,47.6-23.1
			c14.1-3.3,28.2-5.6,42.6-4.6c16.8,1.2,33.4,3.5,50.1,5.4c9.5,1.1,19,2,28.4,3.5c19.4,3,38.9,4.8,58.4,7.4
			c13,1.8,26.2,3.2,39.3,4.6c19.7,2.2,39.2,5.7,58.9,7.5c13,1.2,25.4,4,37.1,9.5c4.2,2,8.2,4.6,12.3,7c2.4,1.4,2.2,2.9,0.2,4.7
			c-25.9,23.9-51.9,47.9-77.8,71.8c-25.4,23.6-50.8,47.3-76.2,70.8c-14.2,13.2-28.3,26.5-43,39.1C369.3,238.6,359,241.1,345.8,241z
			 M432.6,93.2c16.9,0.7,32.1-4.6,46.4-13.1c10-5.9,12-17.1,3.7-22.8c-3.1-2.1-7.1-3.8-10.8-4c-21.7-1.6-42.3,2.1-60.2,15.4
			c-10,7.5-8.7,16.3,2.5,22C420.1,93.5,426.4,92.9,432.6,93.2z M315.1,89.2c-5.6-0.9-10.6,0.8-15.8,1.6
			c-12.1,1.9-23.1,6.4-32.8,13.6c-4.7,3.5-8.5,8.4-6.5,15.2c1.7,5.8,6.6,7.5,11.9,8.5c22.1,4,42.8,0,61.6-12.3c10.8-7,12-18,2.1-23
			C329.5,89.8,322.3,87.6,315.1,89.2z M139.8,165.2c5.4,0.2,13.4-0.8,21.1-3.2c11.2-3.4,22.1-7.4,29.5-17.3
			c3.7-5.1,4.4-10.2-1.5-14.3c-4.6-3.3-9.6-5.4-15.3-5.3c-9.1,0.2-18.1-0.6-27.1,1.9c-12.9,3.6-25.5,7.6-34,18.9
			c-3.2,4.2-3.9,8.6,0.5,12.8C119.9,165.2,128.6,165,139.8,165.2z"/>
	</g>
</g>
</svg>
